<svg width="16" height="16" viewBox="0 0 16 16" fill="none" xmlns="http://www.w3.org/2000/svg">
    <path d="M7.3335 14H6.66683C4.15267 14 2.89559 14 2.11454 13.219C1.3335 12.4379 1.3335 11.1808 1.3335 8.66667V7.33333M14.6668 7.33333C14.6668 4.81918 14.6668 3.5621 13.8858 2.78105C13.1047 2 11.8477 2 9.3335 2H6.66683C4.15267 2 2.89559 2 2.11454 2.78105C1.67909 3.2165 1.48641 3.79992 1.40116 4.66667" stroke="#D2D4D6" stroke-width="1.5" stroke-linecap="round"/>
    <path d="M8.6665 11.3333C8.6665 10.0762 8.6665 9.44767 9.05703 9.05715C9.44755 8.66663 10.0761 8.66663 11.3332 8.66663H11.9998C13.2569 8.66663 13.8855 8.66663 14.276 9.05715C14.6665 9.44767 14.6665 10.0762 14.6665 11.3333C14.6665 12.5904 14.6665 13.2189 14.276 13.6094C13.8855 14 13.2569 14 11.9998 14H11.3332C10.0761 14 9.44755 14 9.05703 13.6094C8.6665 13.2189 8.6665 12.5904 8.6665 11.3333Z" stroke="#D2D4D6" stroke-width="1.5"/>
</svg>
