<svg width="32" height="40" viewBox="0 0 32 40" fill="none" xmlns="http://www.w3.org/2000/svg">
    <path fill-rule="evenodd" clip-rule="evenodd" d="M13.3333 26C12.5973 26 12 25.4027 12 24.6667C12 23.9307 12.5973 23.3333 13.3333 23.3333C14.0693 23.3333 14.6667 23.9307 14.6667 24.6667C14.6667 25.4027 14.0693 26 13.3333 26ZM12 20C12 20.736 12.5973 21.3333 13.3333 21.3333C14.0693 21.3333 14.6667 20.736 14.6667 20C14.6667 19.264 14.0693 18.6667 13.3333 18.6667C12.5973 18.6667 12 19.264 12 20ZM12 15.3333C12 16.0693 12.5973 16.6667 13.3333 16.6667C14.0693 16.6667 14.6667 16.0693 14.6667 15.3333C14.6667 14.5973 14.0693 14 13.3333 14C12.5973 14 12 14.5973 12 15.3333Z" fill="#C1C1C1"/>
    <path fill-rule="evenodd" clip-rule="evenodd" d="M19 26C18.264 26 17.6666 25.4027 17.6666 24.6667C17.6666 23.9307 18.264 23.3333 19 23.3333C19.736 23.3333 20.3333 23.9307 20.3333 24.6667C20.3333 25.4027 19.736 26 19 26ZM17.6666 20C17.6666 20.736 18.264 21.3333 19 21.3333C19.736 21.3333 20.3333 20.736 20.3333 20C20.3333 19.264 19.736 18.6667 19 18.6667C18.264 18.6667 17.6666 19.264 17.6666 20ZM17.6666 15.3333C17.6666 16.0693 18.264 16.6667 19 16.6667C19.736 16.6667 20.3333 16.0693 20.3333 15.3333C20.3333 14.5973 19.736 14 19 14C18.264 14 17.6666 14.5973 17.6666 15.3333Z" fill="#C1C1C1"/>
</svg>